{
  "accessors": [
    {
      "bufferView": 2,
      "componentType": 5126,
      "count": 9477,
      "max": [
        20.553585052490234,
        57.08576583862305,
        20.48953628540039
      ],
      "min": [
        -20.5535888671875,
        -42.3672981262207,
        -65.5622329711914
      ],
      "type": "VEC3"
    },
    {
      "bufferView": 2,
      "byteOffset": 113724,
      "componentType": 5126,
      "count": 9477,
      "max": [
        1.0,
        1.0,
        1.0
      ],
      "min": [
        -1.0,
        -1.0,
        -1.0
      ],
      "type": "VEC3"
    },
    {
      "bufferView": 3,
      "componentType": 5126,
      "count": 9477,
      "max": [
        1.0,
        1.0,
        1.0,
        1.0
      ],
      "min": [
        -1.0,
        -1.0,
        -1.0,
        -1.0
      ],
      "type": "VEC4"
    },
    {
      "bufferView": 1,
      "componentType": 5126,
      "count": 9477,
      "max": [
        0.9965659976005554,
        0.9963729977607727
      ],
      "min": [
        0.001962000038474798,
        0.001962000038474798
      ],
      "type": "VEC2"
    },
    {
      "bufferView": 1,
      "byteOffset": 75816,
      "componentType": 5126,
      "count": 9477,
      "max": [
        0.9965659976005554,
        0.9963729977607727
      ],
      "min": [
        0.001962000038474798,
        0.001962000038474798
      ],
      "type": "VEC2"
    },
    {
      "bufferView": 1,
      "byteOffset": 151632,
      "componentType": 5126,
      "count": 9477,
      "max": [
        0.9965659976005554,
        0.9963729977607727
      ],
      "min": [
        0.001962000038474798,
        0.001962000038474798
      ],
      "type": "VEC2"
    },
    {
      "bufferView": 0,
      "componentType": 5125,
      "count": 40308,
      "type": "SCALAR"
    },
    {
      "bufferView": 2,
      "byteOffset": 227448,
      "componentType": 5126,
      "count": 23919,
      "max": [
        30.600008010864258,
        67.95707702636719,
        21.76324462890625
      ],
      "min": [
        -30.60001564025879,
        -43.76156997680664,
        -77.48332214355469
      ],
      "type": "VEC3"
    },
    {
      "bufferView": 2,
      "byteOffset": 514476,
      "componentType": 5126,
      "count": 23919,
      "max": [
        1.0,
        1.0,
        1.0
      ],
      "min": [
        -1.0,
        -1.0,
        -1.0
      ],
      "type": "VEC3"
    },
    {
      "bufferView": 3,
      "byteOffset": 151632,
      "componentType": 5126,
      "count": 23919,
      "max": [
        1.0,
        1.0,
        1.0,
        1.0
      ],
      "min": [
        -1.0,
        -1.0,
        -1.0,
        -1.0
      ],
      "type": "VEC4"
    },
    {
      "bufferView": 1,
      "byteOffset": 227448,
      "componentType": 5126,
      "count": 23919,
      "max": [
        0.9965369701385498,
        0.996429979801178
      ],
      "min": [
        0.001971006393432617,
        0.0019710001070052385
      ],
      "type": "VEC2"
    },
    {
      "bufferView": 1,
      "byteOffset": 418800,
      "componentType": 5126,
      "count": 23919,
      "max": [
        0.9965369701385498,
        0.996429979801178
      ],
      "min": [
        0.001971006393432617,
        0.0019710001070052385
      ],
      "type": "VEC2"
    },
    {
      "bufferView": 1,
      "byteOffset": 610152,
      "componentType": 5126,
      "count": 23919,
      "max": [
        0.9965369701385498,
        0.996429979801178
      ],
      "min": [
        0.001971006393432617,
        0.0019710001070052385
      ],
      "type": "VEC2"
    },
    {
      "bufferView": 0,
      "byteOffset": 161232,
      "componentType": 5125,
      "count": 101958,
      "type": "SCALAR"
    }
  ],
  "asset": {
    "extras": {
      "author": "pallavicini.daniele (https://sketchfab.com/pallavicini.daniele)",
      "license": "CC-BY-SA-4.0 (http://creativecommons.org/licenses/by-sa/4.0/)",
      "source": "https://sketchfab.com/3d-models/cyberpunk-monobike-sketchfab-challenge-99e099663418409191f33963b77cf62e",
      "title": "Cyberpunk - Monobike Sketchfab Challenge"
    },
    "generator": "Sketchfab-12.67.0",
    "version": "2.0"
  },
  "bufferViews": [
    {
      "buffer": 0,
      "byteLength": 569064,
      "name": "floatBufferViews",
      "target": 34963
    },
    {
      "buffer": 0,
      "byteLength": 801504,
      "byteOffset": 569064,
      "byteStride": 8,
      "name": "floatBufferViews",
      "target": 34962
    },
    {
      "buffer": 0,
      "byteLength": 801504,
      "byteOffset": 1370568,
      "byteStride": 12,
      "name": "floatBufferViews",
      "target": 34962
    },
    {
      "buffer": 0,
      "byteLength": 534336,
      "byteOffset": 2172072,
      "byteStride": 16,
      "name": "floatBufferViews",
      "target": 34962
    }
  ],
  "buffers": [
    {
      "byteLength": 2706408,
      "uri": "bikemodel.bin"
    }
  ],
  "images": [
    {
      "uri": "textures/Monobike_U1_baseColor.png"
    },
    {
      "uri": "textures/Monobike_U1_metallicRoughness.png"
    },
    {
      "uri": "textures/Monobike_U1_normal.png"
    },
    {
      "uri": "textures/Monobike_U2_baseColor.png"
    },
    {
      "uri": "textures/Monobike_U2_metallicRoughness.png"
    },
    {
      "uri": "textures/Monobike_U2_emissive.png"
    },
    {
      "uri": "textures/Monobike_U2_normal.png"
    }
  ],
  "materials": [
    {
      "doubleSided": true,
      "name": "Monobike_U1",
      "normalTexture": {
        "index": 2
      },
      "occlusionTexture": {
        "index": 1
      },
      "pbrMetallicRoughness": {
        "baseColorTexture": {
          "index": 0
        },
        "metallicRoughnessTexture": {
          "index": 1
        }
      }
    },
    {
      "doubleSided": true,
      "emissiveFactor": [
        1.0,
        1.0,
        1.0
      ],
      "emissiveTexture": {
        "index": 5
      },
      "name": "Monobike_U2",
      "normalTexture": {
        "index": 6
      },
      "occlusionTexture": {
        "index": 4
      },
      "pbrMetallicRoughness": {
        "baseColorTexture": {
          "index": 3
        },
        "metallicRoughnessTexture": {
          "index": 4
        }
      }
    }
  ],
  "meshes": [
    {
      "name": "Monobike_Monobike_U1_0",
      "primitives": [
        {
          "attributes": {
            "NORMAL": 1,
            "POSITION": 0,
            "TANGENT": 2,
            "TEXCOORD_0": 3,
            "TEXCOORD_1": 4,
            "TEXCOORD_2": 5
          },
          "indices": 6,
          "material": 0,
          "mode": 4
        }
      ]
    },
    {
      "name": "Monobike_Monobike_U2_0",
      "primitives": [
        {
          "attributes": {
            "NORMAL": 8,
            "POSITION": 7,
            "TANGENT": 9,
            "TEXCOORD_0": 10,
            "TEXCOORD_1": 11,
            "TEXCOORD_2": 12
          },
          "indices": 13,
          "material": 1,
          "mode": 4
        }
      ]
    }
  ],
  "nodes": [
    {
      "children": [
        1
      ],
      "matrix": [
        0.01176456268876791,
        0.0,
        0.0,
        0.0,
        0.0,
        2.6122576743432346e-18,
        -0.01176456268876791,
        0.0,
        0.0,
        0.01176456268876791,
        2.6122576743432346e-18,
        0.0,
        0.0,
        0.0,
        0.0,
        1.0
      ],
      "name": "Sketchfab_model"
    },
    {
      "children": [
        2
      ],
      "matrix": [
        1.0,
        0.0,
        0.0,
        0.0,
        0.0,
        0.0,
        1.0,
        0.0,
        0.0,
        -1.0,
        0.0,
        0.0,
        0.0,
        0.0,
        0.0,
        1.0
      ],
      "name": "ba6e88a1595149b380adcddc325b14f8.fbx"
    },
    {
      "children": [
        3
      ],
      "name": "RootNode"
    },
    {
      "children": [
        4,
        5
      ],
      "matrix": [
        1.0,
        0.0,
        0.0,
        0.0,
        -0.0,
        -1.6292067939183141e-07,
        -0.9999999999999868,
        0.0,
        0.0,
        0.9999999999999868,
        -1.6292067939183141e-07,
        0.0,
        -1.9869310563080944e-05,
        76.59861755371094,
        -5.246074676513672,
        1.0
      ],
      "name": "Monobike"
    },
    {
      "mesh": 0,
      "name": "Monobike_Monobike_U1_0"
    },
    {
      "mesh": 1,
      "name": "Monobike_Monobike_U2_0"
    }
  ],
  "samplers": [
    {
      "magFilter": 9729,
      "minFilter": 9987,
      "wrapS": 10497,
      "wrapT": 10497
    }
  ],
  "scene": 0,
  "scenes": [
    {
      "name": "Sketchfab_Scene",
      "nodes": [
        0
      ]
    }
  ],
  "textures": [
    {
      "sampler": 0,
      "source": 0
    },
    {
      "sampler": 0,
      "source": 1
    },
    {
      "sampler": 0,
      "source": 2
    },
    {
      "sampler": 0,
      "source": 3
    },
    {
      "sampler": 0,
      "source": 4
    },
    {
      "sampler": 0,
      "source": 5
    },
    {
      "sampler": 0,
      "source": 6
    }
  ]
}
